<svg width="21" height="20" viewBox="0 0 21 20" fill="none" xmlns="http://www.w3.org/2000/svg">
<path fill-rule="evenodd" clip-rule="evenodd" d="M10.627 0.5C5.11593 0.5 0.648438 4.86523 0.648438 10.25C0.648438 15.6348 5.11593 20 10.627 20C16.1379 20 20.6055 15.6348 20.6055 10.25C20.6055 4.86523 16.1379 0.5 10.627 0.5V0.5ZM9.59318 18.5468C7.69996 18.3253 5.94826 17.4972 4.57905 16.1594C2.96359 14.5809 2.07397 12.4823 2.07397 10.25C2.07397 8.24047 2.7953 6.3395 4.11769 4.82848C4.15175 5.22772 4.23585 5.65573 4.21431 5.96169C4.13563 7.07708 4.02299 7.77514 4.69116 8.71616C4.95147 9.08267 5.01542 9.60809 5.14211 10.0323C5.26603 10.4473 5.76107 10.665 6.10249 10.9207C6.79134 11.4368 7.45036 12.0366 8.1808 12.4908C8.66288 12.7905 8.96401 12.9396 8.82283 13.5145C8.70927 13.9768 8.67756 14.2615 8.4328 14.6734C8.35811 14.799 8.71474 15.607 8.83343 15.723C9.19313 16.0744 9.55006 16.3968 9.94214 16.7132C10.55 17.204 9.88309 17.8416 9.59318 18.5468V18.5468ZM16.6749 16.1594C15.4452 17.3609 13.9068 18.1509 12.2346 18.4601C12.4716 17.8874 12.8936 17.3787 13.285 17.0837C13.6255 16.827 14.0519 16.3333 14.2297 15.9422C14.4074 15.5517 14.6428 15.2131 14.8811 14.8539C15.22 14.343 14.0454 13.5726 13.6648 13.4111C12.8083 13.0477 12.1635 12.5575 11.4023 12.0341C10.8599 11.6613 9.75884 12.2288 9.14655 11.9677C8.30792 11.6099 7.61699 10.9882 6.88803 10.4518C6.13579 9.89825 6.17216 9.25292 6.17216 8.43631C6.76138 8.45755 7.59958 8.27699 7.99076 8.73997C8.1142 8.88608 8.53862 9.53882 8.82272 9.30688C9.05482 9.11736 8.65074 8.35771 8.57268 8.17911C8.33257 7.62997 9.11978 7.4158 9.52271 7.04342C10.0485 6.55761 11.1764 5.7957 11.0872 5.44747C10.9981 5.09924 9.9587 4.11261 9.34823 4.26655C9.25675 4.28961 8.45126 5.11485 8.29563 5.24431C8.29976 4.97497 8.30389 4.70567 8.30811 4.43633C8.31075 4.26627 7.98342 4.0917 7.99863 3.98202C8.03701 3.7048 8.82675 3.20169 9.02321 2.98091C8.88557 2.89686 8.4159 2.50269 8.27376 2.56053C7.92959 2.70069 7.54091 2.79725 7.19674 2.93736C7.19674 2.82073 7.18225 2.71119 7.16498 2.603C7.85466 2.30464 8.58439 2.09717 9.33869 1.9865L10.0144 2.25181L10.4914 2.80498L10.9675 3.28466L11.3837 3.41567L12.0447 2.80653L11.8743 2.37167V1.98078C13.1816 2.16631 14.4161 2.64284 15.4974 3.37766C15.3039 3.39458 15.0914 3.42238 14.8515 3.45219C14.7525 3.395 14.6254 3.36903 14.5174 3.32924C14.8307 3.98745 15.1575 4.63658 15.4895 5.28608C15.8442 5.97988 16.631 6.72406 16.7691 7.45644C16.932 8.31969 16.819 9.10382 16.9081 10.1195C16.9939 11.0975 18.0366 12.2088 18.0366 12.2088C18.0366 12.2088 18.5181 12.369 18.9186 12.3132C18.5453 13.7562 17.78 15.0795 16.6749 16.1594V16.1594Z" fill="white"/>
</svg>
